<?xml version="1.0" standalone="no"?>
<!DOCTYPE svg PUBLIC "-//W3C//DTD SVG 20010904//EN"
 "http://www.w3.org/TR/2001/REC-SVG-20010904/DTD/svg10.dtd">
<svg version="1.0" xmlns="http://www.w3.org/2000/svg"
 width="1638.000000pt" height="960.000000pt" viewBox="0 0 1638.000000 960.000000"
 preserveAspectRatio="xMidYMid meet">

<g transform="translate(0.000000,960.000000) scale(0.100000,-0.100000)"
fill="#000000" stroke="none">
<path d="M8022 8420 c-434 -42 -836 -204 -1162 -467 -97 -79 -270 -258 -342
-354 -189 -253 -319 -547 -394 -889 -16 -72 -19 -129 -19 -370 0 -279 1 -288
28 -405 137 -572 463 -1030 950 -1331 236 -147 523 -248 815 -288 130 -18 415
-21 542 -6 384 47 738 188 1040 416 111 84 323 297 402 404 177 241 313 539
367 807 28 138 44 418 31 569 -54 667 -414 1252 -991 1610 -181 112 -410 207
-604 252 -209 48 -479 69 -663 52z m-179 -695 c37 -13 90 -37 117 -55 69 -44
162 -147 198 -219 l30 -61 40 73 c96 172 253 273 442 284 108 7 180 -8 280
-58 132 -66 245 -196 292 -335 95 -280 -2 -573 -281 -852 -116 -116 -746 -664
-766 -666 -25 -2 -678 566 -807 702 -153 161 -252 335 -279 486 -14 83 -7 240
15 309 28 87 88 188 151 252 154 156 366 208 568 140z m-1009 -813 c16 -10 38
-30 50 -45 20 -27 21 -43 27 -360 4 -256 9 -342 21 -377 46 -139 138 -263 308
-415 145 -130 180 -151 228 -139 46 11 79 64 68 109 -4 17 -71 93 -180 204
-95 97 -180 191 -190 208 -39 77 -5 162 75 183 72 20 97 0 419 -327 299 -303
336 -349 385 -470 37 -91 45 -169 45 -450 l0 -262 -24 -28 -24 -28 -189 0
c-252 0 -276 13 -294 156 -17 134 -36 157 -424 494 -369 319 -473 456 -519
677 -13 62 -16 144 -16 410 0 210 4 348 11 372 27 96 134 138 223 88z m2870 0
c16 -10 38 -30 50 -45 21 -28 21 -37 21 -435 l0 -407 -34 -88 c-37 -98 -103
-205 -177 -286 -27 -30 -170 -161 -319 -292 -285 -249 -371 -333 -399 -388
-10 -18 -21 -63 -25 -100 -8 -78 -27 -113 -74 -138 -27 -14 -62 -17 -214 -18
l-182 0 -28 28 -28 27 0 278 c1 315 6 354 67 481 43 91 71 122 503 559 204
206 222 218 298 184 23 -10 48 -26 56 -35 22 -28 26 -99 6 -138 -10 -19 -101
-118 -201 -220 -197 -200 -201 -206 -164 -266 25 -41 73 -52 121 -28 51 26
185 143 292 255 105 109 168 217 187 319 6 29 10 187 10 350 0 265 2 300 19
336 21 47 38 63 88 81 42 15 84 10 127 -14z"/>
<path d="M1993 3876 c-203 -39 -383 -130 -532 -271 -234 -221 -361 -526 -361
-870 0 -205 41 -389 127 -559 58 -116 91 -164 182 -259 132 -138 291 -228 500
-285 87 -23 113 -26 286 -26 164 0 201 3 268 22 202 56 366 149 483 276 82 88
164 218 171 274 5 39 4 41 -33 60 -22 11 -83 36 -137 56 -114 43 -107 45 -172
-55 -86 -133 -209 -233 -345 -280 -100 -34 -317 -39 -423 -10 -215 59 -372
192 -467 396 -64 136 -75 196 -75 395 0 152 3 185 23 254 82 285 283 489 534
542 96 21 264 21 353 0 159 -38 304 -142 401 -287 26 -39 53 -73 61 -76 16 -6
121 27 212 68 l64 29 -6 40 c-14 104 -191 327 -335 421 -78 52 -191 99 -312
131 -98 26 -361 34 -467 14z"/>
<path d="M14943 3833 c-59 -8 -57 1 -61 -444 -3 -225 -7 -409 -9 -409 -3 0
-38 31 -78 69 -130 123 -252 166 -455 158 -206 -7 -321 -58 -470 -207 -119
-120 -183 -235 -217 -393 -19 -89 -13 -355 10 -432 43 -147 106 -256 206 -355
87 -86 175 -141 276 -173 60 -19 92 -22 230 -22 153 0 163 1 230 29 92 38 139
71 209 146 31 34 59 60 61 58 2 -2 7 -41 11 -86 10 -119 7 -117 163 -117 112
0 133 3 148 18 17 17 18 73 18 1072 0 963 -1 1056 -16 1071 -13 12 -41 17
-120 19 -57 2 -118 1 -136 -2z m-365 -945 c78 -25 174 -96 218 -161 112 -163
121 -419 21 -589 -86 -147 -285 -237 -461 -209 -291 47 -453 350 -356 665 50
159 169 277 310 305 30 6 64 13 75 15 35 8 128 -5 193 -26z"/>
<path d="M7827 3808 c-16 -12 -18 -74 -24 -773 -6 -756 1 -1340 18 -1366 12
-19 292 -20 311 -1 9 9 13 98 16 362 3 262 8 352 17 360 7 6 143 14 336 19
230 7 340 14 379 25 191 51 328 144 419 286 147 228 148 562 1 789 -102 158
-243 247 -462 291 -87 18 -138 20 -545 20 -344 0 -453 -3 -466 -12z m905 -309
c75 -16 169 -62 215 -108 22 -21 53 -65 69 -97 26 -54 29 -68 29 -174 0 -105
-2 -120 -28 -175 -55 -117 -158 -192 -297 -214 -36 -6 -172 -11 -302 -11 -202
0 -239 2 -252 16 -14 13 -16 61 -16 375 0 229 4 367 10 380 10 18 24 19 265
19 147 0 276 -5 307 -11z"/>
<path d="M9723 3813 c-20 -2 -38 -13 -45 -26 -25 -46 -23 -2077 3 -2118 12
-19 272 -20 291 -1 17 17 19 2115 3 2131 -12 12 -199 22 -252 14z"/>
<path d="M3874 3196 c-186 -42 -340 -151 -408 -288 -33 -65 -34 -103 -3 -119
40 -23 220 -77 234 -72 8 3 23 23 33 44 64 124 202 191 364 176 189 -18 296
-125 296 -299 0 -52 -2 -58 -22 -63 -13 -2 -144 -9 -293 -14 -196 -7 -286 -14
-330 -26 -224 -62 -369 -218 -382 -412 -16 -226 109 -398 347 -479 44 -15 85
-19 205 -19 131 0 159 3 217 23 87 30 171 86 231 152 26 29 51 49 56 44 4 -5
15 -30 25 -56 41 -111 94 -141 252 -142 96 -1 115 2 132 18 26 22 36 99 25
176 -8 53 -10 55 -51 70 -81 30 -76 6 -84 418 -3 202 -11 396 -18 432 -24 133
-117 276 -227 349 -26 17 -90 45 -142 63 -87 28 -110 31 -246 34 -103 3 -169
-1 -211 -10z m506 -881 c9 -10 11 -38 8 -89 -14 -209 -194 -348 -434 -334
-126 7 -208 52 -245 133 -44 96 0 213 99 261 76 37 123 43 343 43 182 1 219
-1 229 -14z"/>
<path d="M5680 3191 c-121 -39 -205 -103 -266 -202 -20 -32 -41 -59 -45 -59
-5 0 -9 39 -9 88 0 48 -5 103 -10 123 l-10 36 -90 7 c-103 9 -174 0 -192 -22
-10 -12 -13 -167 -13 -753 0 -405 4 -741 8 -746 14 -13 284 -10 298 4 9 9 14
126 20 430 4 258 11 435 19 463 34 134 129 244 250 292 39 15 88 23 165 27
l110 6 8 45 c12 64 3 245 -13 264 -18 23 -158 21 -230 -3z"/>
<path d="M6610 3194 c-240 -51 -419 -198 -526 -429 -51 -110 -66 -189 -65
-345 0 -163 20 -252 85 -385 89 -179 238 -309 432 -375 138 -48 331 -56 481
-20 177 42 351 158 416 279 l28 51 -25 25 c-26 26 -179 105 -203 105 -8 0 -45
-30 -84 -66 -43 -41 -95 -77 -137 -97 -60 -28 -78 -32 -177 -35 -127 -5 -202
14 -291 73 -93 61 -168 179 -181 283 -5 42 -3 51 14 60 12 7 219 12 564 14
463 2 549 5 564 18 16 13 17 28 12 135 -9 194 -66 351 -176 482 -64 76 -179
160 -267 193 -128 48 -330 63 -464 34z m260 -264 c165 -31 303 -172 304 -310
l1 -45 -396 -3 c-315 -2 -399 0 -407 11 -7 9 -8 26 -1 56 47 211 262 336 499
291z"/>
<path d="M10795 3199 c-167 -44 -254 -86 -333 -162 -79 -76 -140 -185 -127
-228 8 -25 240 -105 262 -90 6 3 18 21 27 39 67 131 222 200 391 174 176 -27
265 -125 265 -289 0 -57 -2 -63 -22 -68 -13 -2 -142 -9 -288 -14 -190 -7 -282
-14 -325 -26 -156 -43 -279 -135 -337 -253 -30 -60 -33 -76 -36 -174 -4 -128
17 -208 77 -288 96 -128 228 -189 429 -197 148 -7 205 4 318 57 63 30 95 54
143 106 35 36 66 63 71 58 4 -5 13 -27 20 -49 18 -58 57 -104 104 -126 50 -23
260 -28 289 -6 21 15 32 120 20 187 -8 41 -12 46 -51 60 -81 30 -76 3 -83 443
-6 383 -7 394 -32 469 -31 98 -73 163 -148 232 -66 61 -154 108 -250 131 -78
20 -328 29 -384 14z m483 -881 c30 -30 1 -182 -50 -261 -17 -26 -55 -65 -85
-87 -83 -59 -139 -75 -268 -75 -101 0 -114 2 -163 28 -119 63 -154 193 -80
299 25 36 98 78 162 94 70 17 467 19 484 2z"/>
<path d="M12641 3194 c-116 -31 -209 -91 -281 -182 -23 -28 -46 -52 -51 -52
-5 0 -9 44 -9 99 0 79 -3 101 -17 112 -22 19 -266 20 -285 1 -17 -17 -25
-1461 -8 -1492 10 -18 22 -20 154 -20 141 0 144 0 150 23 3 12 8 195 11 407 4
212 11 419 16 460 18 144 99 264 217 322 64 31 208 38 281 13 97 -32 182 -131
212 -247 6 -25 14 -233 19 -502 6 -318 12 -462 20 -470 17 -17 262 -15 284 3
16 13 17 53 13 540 -4 579 -2 562 -70 705 -67 140 -196 245 -348 281 -80 19
-237 18 -308 -1z"/>
</g>
</svg>
