<?xml version='1.0' encoding='utf-8'?>
<svg xmlns="http://www.w3.org/2000/svg" width="221.21" height="221.21" style="isolation:isolate" viewBox="798.79 588.39 221.21 221.21"> <path d="m798.79 699c0-61.046 49.561-110.61 110.61-110.61s110.61 49.561 110.61 110.61-49.561 110.61-110.61 110.61-110.61-49.561-110.61-110.61z" fill="#ff4141"/> <linearGradient id="a" x1="2.5741%" x2="119.69%" y1="26.726%" y2="113.59%"> <stop stop-color="#cc3434" offset=".013043"/> <stop stop-color="#ff4141" offset=".97826"/> </linearGradient> <path d="m926.81 808.24-30.811-30.241 13 1 0.211-11.307-29.211-27.693-3.787-38.882 33.51 39.098 2.277-122.22 105.31 105.31c-9.844 43.814-45.718 77.83-90.503 84.927z" fill="url(#a)"/> <path d="m881.8 667.01v52.101c0 15.23 12.366 27.596 27.597 27.596s27.596-12.366 27.596-27.596v-73.191c0-15.231-12.365-27.596-27.596-27.596s-27.597 12.365-27.597 27.596v0.415h12.571c1.019 0 1.846 0.827 1.846 1.846v0.444c0 1.018-0.827 1.845-1.846 1.845h-12.571v4.135h12.571c1.019 0 1.846 0.827 1.846 1.846v0.443c0 1.019-0.827 1.846-1.846 1.846h-12.571v4.135h12.571c1.019 0 1.846 0.827 1.846 1.845v0.444c0 1.019-0.827 1.846-1.846 1.846h-12.571zm29.664 108.54v-20.734c8.708-0.507 16.979-4.204 23.207-10.432 6.719-6.667 10.492-15.816 10.492-25.274v-15.403c0-1.426-1.158-2.584-2.584-2.584h-2e-3c-1.426 0-2.584 1.158-2.584 2.584v15.405c0 8.099-3.24 15.898-8.969 21.627s-13.528 8.969-21.627 8.969-15.898-3.24-21.627-8.969c-5.73-5.729-8.969-13.528-8.969-21.627v-15.405c0-1.426-1.158-2.584-2.584-2.584h-2e-3c-1.427 0-2.585 1.158-2.585 2.584v15.403c0 9.458 3.773 18.607 10.493 25.274 6.228 6.228 14.498 9.925 23.206 10.432v20.734h-9.266c-1.019 0-1.846 0.827-1.846 1.846v0.444c0 1.018 0.827 1.845 1.846 1.845h22.668c1.019 0 1.846-0.827 1.846-1.845v-0.444c0-1.019-0.827-1.846-1.846-1.846h-9.267z" fill="#fff" fill-rule="evenodd"/> </svg>